<svg xmlns="http://www.w3.org/2000/svg" viewBox="0 0 70 48"><g fill="none"><path fill="#EA4403" d="m46.488 31.77 4.129 4.742-1.877 3.753-10.406-.512-.17-2.9 3.411.682 4.777.341.17-1.194-6.312-3.07zM8.138 19.793l-5.8 2.047-1.365-1.535-.683.17 1.536 2.9 7.506-2.046zm17.017 20.724 1.093 2.873 5.631 2.558.484 1.637h2.792l-1.427-3.055-4.948-2.73.171-8.87-12.283-3.754-.512 2.047z"/><path fill="#FF5000" d="M46.523 47.585h-2.73l-1.706-2.714 3.583-13.136 3.07-.17-3.714 13.061zM8.308 26.617v7.507l-1.876.17L8.99 47.601h2.9l-.341-2.047-1.365-7.677 6.506-6.795 1.171-1.224z"/><path fill="#FF5000" d="M62.559 28.494v1.535l-5.715 5.715H54.2V30.2l-7.712 1.911-12.248 3.036-25.932-8.36-.17-6.994 13.136-6.653L45.158.345l17.401 17.23v6.654h7.165z"/></g></svg>